<svg width="16" height="16" viewBox="0 0 16 16" fill="none" xmlns="http://www.w3.org/2000/svg">
<path d="M8.00065 4.66659C8.36732 4.66659 8.66732 4.96659 8.66732 5.33325V7.99992C8.66732 8.36659 8.36732 8.66659 8.00065 8.66659C7.63398 8.66659 7.33398 8.36659 7.33398 7.99992V5.33325C7.33398 4.96659 7.63398 4.66659 8.00065 4.66659ZM7.99398 1.33325C4.31398 1.33325 1.33398 4.31992 1.33398 7.99992C1.33398 11.6799 4.31398 14.6666 7.99398 14.6666C11.6807 14.6666 14.6673 11.6799 14.6673 7.99992C14.6673 4.31992 11.6807 1.33325 7.99398 1.33325ZM8.00065 13.3333C5.05398 13.3333 2.66732 10.9466 2.66732 7.99992C2.66732 5.05325 5.05398 2.66659 8.00065 2.66659C10.9473 2.66659 13.334 5.05325 13.334 7.99992C13.334 10.9466 10.9473 13.3333 8.00065 13.3333ZM8.66732 11.3333H7.33398V9.99992H8.66732V11.3333Z" fill="#5F6D60"/>
</svg>
