<svg width="20" height="20" viewBox="0 0 20 20" fill="none" xmlns="http://www.w3.org/2000/svg">
<rect y="2.8584" width="20" height="14.2857" rx="1.66667" fill="white"/>
<mask id="mask0_5715_58632" style="mask-type:luminance" maskUnits="userSpaceOnUse" x="0" y="2" width="20" height="16">
<rect y="2.8584" width="20" height="14.2857" rx="1.66667" fill="white"/>
</mask>
<g mask="url(#mask0_5715_58632)">
<path fill-rule="evenodd" clip-rule="evenodd" d="M20 2.8584H0V3.81078H20V2.8584ZM20 4.76318H0V5.71556H20V4.76318ZM0 6.66789H20V7.62027H0V6.66789ZM20 8.57259H0V9.52497H20V8.57259ZM0 10.4777H20V11.4301H0V10.4777ZM20 12.3824H0V13.3348H20V12.3824ZM0 14.2871H20V15.2395H0V14.2871ZM20 16.1918H0V17.1442H20V16.1918Z" fill="#D02F44"/>
<rect y="2.8584" width="8.57143" height="6.66667" fill="#46467F"/>
<g filter="url(#filter0_d_5715_58632)">
<path fill-rule="evenodd" clip-rule="evenodd" d="M1.9051 4.28723C1.9051 4.55022 1.6919 4.76342 1.42891 4.76342C1.16592 4.76342 0.952718 4.55022 0.952718 4.28723C0.952718 4.02423 1.16592 3.81104 1.42891 3.81104C1.6919 3.81104 1.9051 4.02423 1.9051 4.28723ZM3.80972 4.28723C3.80972 4.55022 3.59652 4.76342 3.33353 4.76342C3.07054 4.76342 2.85734 4.55022 2.85734 4.28723C2.85734 4.02423 3.07054 3.81104 3.33353 3.81104C3.59652 3.81104 3.80972 4.02423 3.80972 4.28723ZM5.23823 4.76342C5.50123 4.76342 5.71443 4.55022 5.71443 4.28723C5.71443 4.02423 5.50123 3.81104 5.23823 3.81104C4.97524 3.81104 4.76204 4.02423 4.76204 4.28723C4.76204 4.55022 4.97524 4.76342 5.23823 4.76342ZM7.61913 4.28723C7.61913 4.55022 7.40593 4.76342 7.14294 4.76342C6.87995 4.76342 6.66675 4.55022 6.66675 4.28723C6.66675 4.02423 6.87995 3.81104 7.14294 3.81104C7.40593 3.81104 7.61913 4.02423 7.61913 4.28723ZM2.38138 5.71597C2.64438 5.71597 2.85757 5.50277 2.85757 5.23978C2.85757 4.97679 2.64438 4.76359 2.38138 4.76359C2.11839 4.76359 1.90519 4.97679 1.90519 5.23978C1.90519 5.50277 2.11839 5.71597 2.38138 5.71597ZM4.76228 5.23978C4.76228 5.50277 4.54908 5.71597 4.28609 5.71597C4.02309 5.71597 3.8099 5.50277 3.8099 5.23978C3.8099 4.97679 4.02309 4.76359 4.28609 4.76359C4.54908 4.76359 4.76228 4.97679 4.76228 5.23978ZM6.19079 5.71597C6.45378 5.71597 6.66698 5.50277 6.66698 5.23978C6.66698 4.97679 6.45378 4.76359 6.19079 4.76359C5.9278 4.76359 5.7146 4.97679 5.7146 5.23978C5.7146 5.50277 5.9278 5.71597 6.19079 5.71597ZM7.61913 6.19193C7.61913 6.45492 7.40593 6.66812 7.14294 6.66812C6.87995 6.66812 6.66675 6.45492 6.66675 6.19193C6.66675 5.92894 6.87995 5.71574 7.14294 5.71574C7.40593 5.71574 7.61913 5.92894 7.61913 6.19193ZM5.23823 6.66812C5.50123 6.66812 5.71443 6.45492 5.71443 6.19193C5.71443 5.92894 5.50123 5.71574 5.23823 5.71574C4.97524 5.71574 4.76204 5.92894 4.76204 6.19193C4.76204 6.45492 4.97524 6.66812 5.23823 6.66812ZM3.80972 6.19193C3.80972 6.45492 3.59652 6.66812 3.33353 6.66812C3.07054 6.66812 2.85734 6.45492 2.85734 6.19193C2.85734 5.92894 3.07054 5.71574 3.33353 5.71574C3.59652 5.71574 3.80972 5.92894 3.80972 6.19193ZM1.42883 6.66812C1.69182 6.66812 1.90502 6.45492 1.90502 6.19193C1.90502 5.92894 1.69182 5.71574 1.42883 5.71574C1.16583 5.71574 0.952637 5.92894 0.952637 6.19193C0.952637 6.45492 1.16583 6.66812 1.42883 6.66812ZM2.85757 7.14448C2.85757 7.40748 2.64438 7.62068 2.38138 7.62068C2.11839 7.62068 1.90519 7.40748 1.90519 7.14448C1.90519 6.88149 2.11839 6.66829 2.38138 6.66829C2.64438 6.66829 2.85757 6.88149 2.85757 7.14448ZM4.28609 7.62068C4.54908 7.62068 4.76228 7.40748 4.76228 7.14448C4.76228 6.88149 4.54908 6.66829 4.28609 6.66829C4.02309 6.66829 3.8099 6.88149 3.8099 7.14448C3.8099 7.40748 4.02309 7.62068 4.28609 7.62068ZM6.66698 7.14448C6.66698 7.40748 6.45378 7.62068 6.19079 7.62068C5.9278 7.62068 5.7146 7.40748 5.7146 7.14448C5.7146 6.88149 5.9278 6.66829 6.19079 6.66829C6.45378 6.66829 6.66698 6.88149 6.66698 7.14448ZM7.14294 8.57282C7.40593 8.57282 7.61913 8.35963 7.61913 8.09663C7.61913 7.83364 7.40593 7.62044 7.14294 7.62044C6.87995 7.62044 6.66675 7.83364 6.66675 8.09663C6.66675 8.35963 6.87995 8.57282 7.14294 8.57282ZM5.71443 8.09663C5.71443 8.35963 5.50123 8.57282 5.23823 8.57282C4.97524 8.57282 4.76204 8.35963 4.76204 8.09663C4.76204 7.83364 4.97524 7.62044 5.23823 7.62044C5.50123 7.62044 5.71443 7.83364 5.71443 8.09663ZM3.33353 8.57282C3.59652 8.57282 3.80972 8.35963 3.80972 8.09663C3.80972 7.83364 3.59652 7.62044 3.33353 7.62044C3.07054 7.62044 2.85734 7.83364 2.85734 8.09663C2.85734 8.35963 3.07054 8.57282 3.33353 8.57282ZM1.90502 8.09663C1.90502 8.35963 1.69182 8.57282 1.42883 8.57282C1.16583 8.57282 0.952637 8.35963 0.952637 8.09663C0.952637 7.83364 1.16583 7.62044 1.42883 7.62044C1.69182 7.62044 1.90502 7.83364 1.90502 8.09663Z" fill="url(#paint0_linear_5715_58632)"/>
</g>
</g>
<defs>
<filter id="filter0_d_5715_58632" x="0.952637" y="3.81104" width="6.6665" height="5.59505" filterUnits="userSpaceOnUse" color-interpolation-filters="sRGB">
<feFlood flood-opacity="0" result="BackgroundImageFix"/>
<feColorMatrix in="SourceAlpha" type="matrix" values="0 0 0 0 0 0 0 0 0 0 0 0 0 0 0 0 0 0 127 0" result="hardAlpha"/>
<feOffset dy="0.833333"/>
<feColorMatrix type="matrix" values="0 0 0 0 0 0 0 0 0 0 0 0 0 0 0 0 0 0 0.06 0"/>
<feBlend mode="normal" in2="BackgroundImageFix" result="effect1_dropShadow_5715_58632"/>
<feBlend mode="normal" in="SourceGraphic" in2="effect1_dropShadow_5715_58632" result="shape"/>
</filter>
<linearGradient id="paint0_linear_5715_58632" x1="0.952637" y1="3.81104" x2="0.952637" y2="8.57294" gradientUnits="userSpaceOnUse">
<stop stop-color="white"/>
<stop offset="1" stop-color="#F0F0F0"/>
</linearGradient>
</defs>
</svg>
