<svg width="90" height="17" viewBox="0 0 90 17" fill="none" xmlns="http://www.w3.org/2000/svg">
<g clip-path="url(#clip0_6925_1818)">
<path d="M26.2924 3.56404L26.3022 3.41976H26.4362V1.90823V1.80954L26.3442 1.77376C26.059 1.66281 25.7172 1.62085 25.365 1.62085C24.0445 1.62085 22.9944 2.19613 22.4061 3.2084V1.92852V1.78423H22.2619H20.5693H20.4251V1.92852V12.2647V12.409H20.5693H22.2619H22.4061V12.2647V6.97406C22.4061 5.77902 22.6887 4.91498 23.1933 4.35079C23.6953 3.7893 24.4372 3.50264 25.4056 3.50264C25.6588 3.50264 25.8979 3.5172 26.1476 3.54676V3.56404H26.2919H26.2924Z" fill="#232323" stroke="#232323" stroke-width="0.288571"/>
<path d="M37.0743 12.4095H37.2186V12.2652V2.07329V1.929V1.92847H37.0743V1.78472H35.3818H35.2375V1.929V3.26606C34.5091 2.17023 33.1478 1.49854 31.6134 1.49854C28.7181 1.49854 26.6126 3.84559 26.6126 7.09682C26.6126 10.348 28.7181 12.6956 31.6134 12.6956C33.1478 12.6956 34.5091 12.0239 35.2375 10.9281V12.2652V12.4095H35.3818H37.0743ZM34.3863 4.41324L34.3863 4.41325L34.3878 4.41495C35.0045 5.09852 35.3181 6.00152 35.3181 7.09628C35.3181 8.19105 35.0045 9.09405 34.3878 9.77762L34.3878 9.77761L34.3863 9.77933C33.7913 10.4602 32.986 10.8128 31.9962 10.8128C31.0072 10.8128 30.201 10.4608 29.5851 9.77847C28.9877 9.0944 28.6743 8.19068 28.6743 7.09628C28.6743 6.00189 28.9877 5.09817 29.5851 4.4141C30.201 3.73182 31.0072 3.37979 31.9962 3.37979C32.986 3.37979 33.7913 3.73235 34.3863 4.41324Z" fill="#232323" stroke="#232323" stroke-width="0.288571"/>
<path d="M48.2576 1.92847V1.78418H48.1134H48.1123H46.4198H46.2755V1.92847V7.79091C46.2755 8.60938 45.9594 9.28993 45.4267 9.76722C44.8929 10.2457 44.1329 10.5271 43.236 10.5271C42.4654 10.5271 41.9293 10.3203 41.5808 9.90457C41.2274 9.48313 41.0428 8.81935 41.0428 7.85231V1.92847V1.78418H40.8985H39.206H39.0617V1.92847V8.26076C39.0617 9.58163 39.4055 10.622 40.0595 11.3332C40.7151 12.0462 41.6644 12.4089 42.8334 12.4089C44.3267 12.4089 45.5736 11.8354 46.276 10.7818V11.2635C46.276 12.4988 45.9788 13.4038 45.4441 13.9989C44.9117 14.5914 44.1242 14.8983 43.0956 14.8983C41.9187 14.8983 40.7858 14.4808 39.9889 13.7514L39.8756 13.6476L39.7791 13.7674L38.7919 14.9932L38.7121 15.0924L38.8005 15.184C39.7818 16.2001 41.3954 16.7807 43.1361 16.7807C44.737 16.7807 46.0236 16.3015 46.9088 15.359C47.7928 14.4179 48.2576 13.0348 48.2576 11.2641V1.92847Z" fill="#232323" stroke="#232323" stroke-width="0.288571"/>
<path d="M59.1319 12.4095H59.2762V12.2652V12.2647V5.6462C59.2762 4.34616 58.9426 3.30613 58.2941 2.58978C57.6436 1.87129 56.6941 1.49805 55.5044 1.49805C54.0177 1.49805 52.7891 2.06703 52.1024 3.11312V1.92852V1.78423H51.9582H50.2656H50.1213V1.92852V12.2652V12.4095H50.2656H51.9582H52.1024V12.2652V6.11659C52.1024 5.28689 52.4144 4.60647 52.9392 4.13227C53.4653 3.65688 54.2149 3.38037 55.1019 3.38037C55.8828 3.38037 56.4184 3.58746 56.7642 4.00258C57.1151 4.42376 57.2951 5.08737 57.2951 6.05519V12.2652V12.4095H57.4394H59.1319Z" fill="#232323" stroke="#232323" stroke-width="0.288571"/>
<path d="M71.2628 12.4095H71.4071V12.2652V2.07329V1.929V1.92847H71.2628V1.78472H69.5703H69.426V1.929V3.26606C68.6976 2.17022 67.3363 1.49854 65.8019 1.49854C62.9066 1.49854 60.801 3.84559 60.801 7.09682C60.801 10.348 62.9066 12.6956 65.8019 12.6956C67.3363 12.6956 68.6976 12.0239 69.426 10.9281V12.2652V12.4095H69.5703H71.2628ZM68.5748 4.41324L68.5748 4.41325L68.5763 4.41495C69.193 5.09852 69.5066 6.00152 69.5066 7.09628C69.5066 8.19105 69.193 9.09405 68.5763 9.77762L68.5763 9.77761L68.5748 9.77933C67.9798 10.4602 67.1745 10.8128 66.1847 10.8128C65.1957 10.8128 64.3895 10.4608 63.7735 9.77847C63.1762 9.0944 62.8628 8.19068 62.8628 7.09628C62.8628 6.00189 63.1762 5.09817 63.7735 4.4141C64.3895 3.73182 65.1957 3.37979 66.1847 3.37979C67.1745 3.37979 67.9798 3.73235 68.5748 4.41324Z" fill="#232323" stroke="#232323" stroke-width="0.288571"/>
<path d="M79.0903 1.92847V1.78418H78.946H77.2535H77.2524H77.1082V1.92847V8.40439C77.1082 9.66573 77.5599 10.7416 78.3595 11.5017C79.1585 12.2612 80.2942 12.6956 81.6455 12.6956C82.9968 12.6956 84.1326 12.2612 84.9316 11.5016C85.7311 10.7416 86.1829 9.66573 86.1829 8.40439V1.92847V1.78418H86.0386H84.3461H84.2018V1.92847V8.30188C84.2018 9.13239 83.9635 9.75471 83.5377 10.1699C83.1113 10.5857 82.4769 10.8133 81.6461 10.8133C80.8152 10.8133 80.1809 10.5857 79.7545 10.1699C79.3286 9.75471 79.0903 9.13239 79.0903 8.30188V1.92847Z" fill="#232323" stroke="#232323" stroke-width="0.288571"/>
<path d="M88.3071 1.78418H88.1628V1.92847V12.2652V12.4095H88.3071H89.9997H90.1439V12.2652V1.92847V1.78418H89.9997H88.3071Z" fill="#232323" stroke="#232323" stroke-width="0.288571"/>
<path d="M12.9975 8.9122L12.0903 8.00507C12.0674 7.98211 12.0754 7.94367 12.1048 7.93085C12.4251 7.79257 12.7246 7.61424 12.9975 7.40334C13.0952 7.32752 13.1892 7.24797 13.2794 7.16414C13.5426 6.91961 13.7738 6.64144 13.966 6.33603C13.9665 6.33497 13.9671 6.33443 13.9676 6.33336C14.084 6.14809 14.1865 5.95268 14.273 5.74925C14.4818 5.25805 14.5982 4.71825 14.6003 4.15123C14.6003 4.15123 14.6003 4.1507 14.6003 4.15016C14.6003 4.14482 14.6003 4.13948 14.6003 4.13415C14.6003 3.56766 14.4866 3.0284 14.2805 2.53666C14.2116 2.37167 14.1321 2.21203 14.0429 2.0588C14.0429 2.05773 14.0418 2.0572 14.0418 2.05666C13.6408 1.3679 13.0466 0.80622 12.3338 0.444756C12.3311 0.443154 12.3279 0.441552 12.3253 0.440484C11.7737 0.162312 10.8415 0.00427136 10.1826 0C10.1736 0 10.4752 0 10.4662 0C10.4571 0 10.4485 0 10.4395 0H1.73175C1.05154 0 0.5 0.55154 0.5 1.23175V10.0147C0.5 10.2993 0.528832 10.5775 0.583825 10.8461C0.583825 10.8466 0.583825 10.8471 0.583825 10.8482C0.686338 11.349 0.879617 11.8173 1.14551 12.2343C1.14551 12.2353 1.14658 12.2359 1.14711 12.2369C1.5924 12.9348 2.24165 13.49 3.01049 13.8184C3.01316 13.8195 3.01583 13.8205 3.0185 13.8216C3.02438 13.8243 3.03078 13.8269 3.03666 13.8296C3.43229 13.9957 3.85889 14.1014 4.30578 14.1366C4.41417 14.1452 4.52309 14.1494 4.63361 14.1494C5.20384 14.1494 5.74684 14.0341 6.24071 13.8253C6.58936 13.678 6.91399 13.4842 7.20657 13.2514C7.20711 13.2514 7.20764 13.2508 7.20818 13.2503C7.21351 13.246 7.21939 13.2418 7.22473 13.237C7.22633 13.2359 7.22793 13.2343 7.22953 13.2332C7.60808 12.9273 7.93164 12.5562 8.18258 12.1365C8.53817 11.5423 8.74907 10.8519 8.76616 10.1135V10.1119C8.76669 10.0799 8.76722 10.0478 8.76722 10.0158C8.76722 9.98378 8.76722 9.95174 8.76616 9.91971V8.44342C8.76616 8.37988 8.84304 8.34785 8.88789 8.39269L12.6317 12.1365L13.5079 13.0127C13.9121 13.4169 14.6024 13.1307 14.6024 12.5594V10.9774C14.6024 10.6848 14.486 10.404 14.2789 10.1968L12.9953 8.91327L12.9975 8.9122ZM10.4646 5.74925H6.52102C6.36672 5.74925 6.24125 5.87419 6.24125 6.02903V10.0494V10.05C6.19052 11.1776 5.05594 11.908 4.01426 11.4718C3.45151 11.2364 3.07083 10.6934 3.03666 10.0788V2.78333C3.03666 2.64878 3.14611 2.53933 3.28066 2.53933L6.65183 2.53719C6.65183 2.53719 6.65183 2.53826 6.6513 2.53879C7.35874 2.53879 8.08914 2.53879 8.76722 2.53879C9.40045 2.53879 9.9883 2.53879 10.4688 2.53986C11.3386 2.54093 12.0562 3.26492 12.0594 4.13201C12.0626 5.02099 11.3573 5.73697 10.4646 5.74979V5.74925Z" fill="#F56630"/>
</g>
<defs>
<clipPath id="clip0_6925_1818">
<rect width="89.5" height="16.6364" fill="white" transform="translate(0.5)"/>
</clipPath>
</defs>
</svg>
