<svg width="21" height="20" viewBox="0 0 21 20" fill="none" xmlns="http://www.w3.org/2000/svg">
<path fill-rule="evenodd" clip-rule="evenodd" d="M9.21537 2.27598C9.74894 2.5462 10.1833 2.86249 10.5002 3.12841C10.817 2.86249 11.2514 2.54621 11.7849 2.27598C12.9941 1.66361 14.7343 1.28486 16.6913 2.27597C17.9414 2.90908 18.787 3.86704 19.2475 5.03012C19.7018 6.17757 19.7635 7.4766 19.5448 8.79457C19.1723 11.0401 17.6375 13.0438 16.0612 14.5876C14.4653 16.1507 12.7153 17.3495 11.7284 17.9745C10.973 18.453 10.0273 18.453 9.27195 17.9745C8.28504 17.3495 6.53509 16.1507 4.93912 14.5876C3.36282 13.0438 1.82801 11.0401 1.45543 8.79457C1.23675 7.4766 1.29847 6.17757 1.75277 5.03012C2.21327 3.86704 3.0589 2.90908 4.309 2.27597C6.266 1.28486 8.00623 1.66361 9.21537 2.27598ZM9.86529 4.82124C10.0236 5.00746 10.2557 5.11481 10.5002 5.11481C10.7443 5.11481 10.976 5.00782 11.1343 4.8222C11.1345 4.82199 11.1346 4.82178 11.1348 4.82156C11.135 4.82131 11.1353 4.82106 11.1355 4.82081L11.1481 4.80661C11.1611 4.79222 11.1829 4.76852 11.213 4.73727C11.2736 4.67464 11.367 4.58255 11.4902 4.47484C11.7382 4.25781 12.0963 3.98653 12.538 3.76283C13.4055 3.32348 14.5726 3.07118 15.9383 3.76283C16.8299 4.21441 17.3893 4.8643 17.6979 5.64366C18.0126 6.43866 18.084 7.41667 17.9006 8.52176C17.6161 10.2366 16.3933 11.9294 14.895 13.3969C13.4164 14.8451 11.7748 15.9724 10.8367 16.5665C10.6258 16.7001 10.3746 16.7001 10.1637 16.5665C9.22561 15.9724 7.58395 14.8451 6.1053 13.3969C4.60698 11.9294 3.38414 10.2366 3.09962 8.52176C2.91626 7.41667 2.98764 6.43866 3.3024 5.64366C3.61097 4.8643 4.17035 4.21441 5.06201 3.76283C6.4277 3.07118 7.59482 3.32347 8.46235 3.76283C8.90405 3.98653 9.26212 4.25782 9.51023 4.47486C9.63335 4.58256 9.72683 4.67465 9.78735 4.73729C9.81754 4.76853 9.83933 4.79224 9.85229 4.80663L9.86529 4.82124Z" fill="#101928"/>
</svg>
