<svg width="16" height="17" viewBox="0 0 16 17" fill="none" xmlns="http://www.w3.org/2000/svg">
<path d="M2.92652 3.20013L3.28354 2.84311C4.06459 2.06206 5.33092 2.06206 6.11197 2.84311L6.73122 3.46236C7.36785 4.09899 7.50062 5.08253 7.05559 5.86518L7.01899 5.92954C6.66245 6.55657 6.66414 7.33249 7.08703 7.91683C7.29772 8.20795 7.53575 8.50953 7.76188 8.73567C7.98802 8.96181 8.2896 9.19983 8.58073 9.41052C9.16507 9.83341 9.94099 9.83511 10.568 9.47856L10.6324 9.44197C11.415 8.99693 12.3986 9.1297 13.0352 9.76633L13.6544 10.3856C14.4355 11.1666 14.4355 12.433 13.6544 13.214L13.2974 13.571C12.9223 13.9461 12.4114 14.1551 11.8956 14.0311C10.7935 13.7662 8.66953 12.9431 6.11197 10.3856C3.55441 7.82803 2.73133 5.70409 2.46644 4.6019C2.34249 4.08616 2.55145 3.57521 2.92652 3.20013Z" fill="white"/>
</svg>
