<svg width="16" height="16" viewBox="0 0 16 16" fill="none" xmlns="http://www.w3.org/2000/svg">
<path d="M6.84612 2.30066C7.37783 1.45528 8.62249 1.45528 9.1542 2.30066L10.4401 4.34516C10.6272 4.6426 10.9244 4.85605 11.2684 4.94002L13.6327 5.51719C14.6104 5.75584 14.995 6.92601 14.346 7.68713L12.7763 9.52787C12.548 9.79567 12.4345 10.141 12.46 10.4904L12.6353 12.8916C12.7078 13.8845 11.7009 14.6077 10.768 14.2327L8.51205 13.3258C8.18384 13.1939 7.81648 13.1939 7.48827 13.3258L5.23228 14.2327C4.29945 14.6077 3.2925 13.8845 3.365 12.8916L3.54034 10.4904C3.56585 10.141 3.45233 9.79567 3.22398 9.52787L1.65436 7.68713C1.00533 6.92601 1.38995 5.75584 2.3676 5.51719L4.73195 4.94002C5.07593 4.85605 5.37312 4.6426 5.5602 4.34516L6.84612 2.30066Z" fill="#F56630"/>
</svg>
