<svg width="20" height="20" viewBox="0 0 20 20" fill="none" xmlns="http://www.w3.org/2000/svg">
<path fill-rule="evenodd" clip-rule="evenodd" d="M10.0002 1.6665C7.69898 1.6665 5.8335 3.53198 5.8335 5.83317C5.8335 8.13436 7.69898 9.99984 10.0002 9.99984C12.3013 9.99984 14.1668 8.13436 14.1668 5.83317C14.1668 3.53198 12.3013 1.6665 10.0002 1.6665ZM7.50016 5.83317C7.50016 4.45246 8.61945 3.33317 10.0002 3.33317C11.3809 3.33317 12.5002 4.45246 12.5002 5.83317C12.5002 7.21388 11.3809 8.33317 10.0002 8.33317C8.61945 8.33317 7.50016 7.21388 7.50016 5.83317Z" fill="#101928"/>
<path fill-rule="evenodd" clip-rule="evenodd" d="M10.0002 19.1665C8.71641 19.1665 6.85834 18.875 5.46302 18.2643C4.77802 17.9645 4.08137 17.5354 3.67662 16.9143C3.46376 16.5877 3.32919 16.2029 3.3336 15.7733C3.33797 15.3477 3.47803 14.9399 3.71343 14.5605C4.85459 12.7212 7.18915 10.8332 10.0002 10.8332C12.8112 10.8332 15.1457 12.7212 16.2869 14.5605C16.5223 14.9399 16.6624 15.3477 16.6667 15.7733C16.6711 16.2029 16.5366 16.5877 16.3237 16.9143C15.919 17.5354 15.2223 17.9645 14.5373 18.2643C13.142 18.875 11.2839 19.1665 10.0002 19.1665ZM5.12966 15.4392C5.01993 15.616 5.0008 15.7296 5.00018 15.7905C4.9996 15.8474 5.01422 15.9142 5.07297 16.0044C5.21145 16.2169 5.54772 16.4821 6.13127 16.7375C7.27303 17.2372 8.89453 17.4998 10.0002 17.4998C11.1058 17.4998 12.7273 17.2372 13.8691 16.7375C14.4526 16.4821 14.7889 16.2169 14.9274 16.0044C14.9861 15.9142 15.0007 15.8474 15.0001 15.7905C14.9995 15.7296 14.9804 15.616 14.8707 15.4392C13.9355 13.932 12.0704 12.4998 10.0002 12.4998C7.92988 12.4998 6.06478 13.932 5.12966 15.4392Z" fill="#101928"/>
</svg>
