<svg width="18" height="14" viewBox="0 0 18 14" fill="none" xmlns="http://www.w3.org/2000/svg">
<path d="M3.1665 0.333252H14.8332C16.2138 0.333252 17.3331 1.45242 17.3332 2.83303C17.2301 2.833 17.1252 2.85223 17.0237 2.89285L9.61882 5.8548C9.22147 6.01374 8.7782 6.01374 8.38085 5.8548L0.975996 2.89285C0.874426 2.85223 0.769598 2.833 0.666504 2.83303C0.666624 1.45242 1.78587 0.333252 3.1665 0.333252Z" fill="#F56630"/>
<path d="M0.666504 4.56411V11.1666C0.666504 12.5473 1.78579 13.6666 3.1665 13.6666H14.8332C16.2139 13.6666 17.3332 12.5473 17.3332 11.1666V4.56411L10.2378 7.40226C9.4431 7.72014 8.55657 7.72014 7.76187 7.40226L0.666504 4.56411Z" fill="#F56630"/>
</svg>
