<svg width="50" height="50" viewBox="0 0 50 50" fill="none" xmlns="http://www.w3.org/2000/svg">
<rect x="0.878418" y="0.672852" width="48.6484" height="48.6484" rx="24.3242" fill="#F56630"/>
<path fill-rule="evenodd" clip-rule="evenodd" d="M31.2026 16.4971H19.2026C17.5458 16.4971 16.2026 17.8402 16.2026 19.4971V27.4971C16.2026 29.1539 17.5458 30.4971 19.2026 30.4971H21.2026C21.8517 30.4971 22.4833 30.7076 23.0026 31.0971L24.4026 32.1471C25.4693 32.9471 26.936 32.9471 28.0026 32.1471L29.4026 31.0971C29.9219 30.7076 30.5535 30.4971 31.2026 30.4971C32.8595 30.4971 34.2026 29.1539 34.2026 27.4971V19.4971C34.2026 17.8402 32.8595 16.4971 31.2026 16.4971ZM19.2026 21.4971C19.2026 20.9448 19.6504 20.4971 20.2026 20.4971H25.2026C25.7549 20.4971 26.2026 20.9448 26.2026 21.4971C26.2026 22.0494 25.7549 22.4971 25.2026 22.4971H20.2026C19.6504 22.4971 19.2026 22.0494 19.2026 21.4971ZM20.2026 24.4971C19.6504 24.4971 19.2026 24.9448 19.2026 25.4971C19.2026 26.0494 19.6504 26.4971 20.2026 26.4971H29.2026C29.7549 26.4971 30.2026 26.0494 30.2026 25.4971C30.2026 24.9448 29.7549 24.4971 29.2026 24.4971H20.2026Z" fill="white"/>
</svg>
